<?xml version="1.0" encoding="UTF-8"?>
<svg width="100px" height="100px" viewBox="0 0 100 100" version="1.1" xmlns="http://www.w3.org/2000/svg" xmlns:xlink="http://www.w3.org/1999/xlink">
    <defs>
        <path d="M19.1962617,42 C20.1074766,42 20.8364486,41.2405063 20.8364486,40.2911392 L20.8364486,32.9746835 L24.5134145,26.5297262 C25.334433,25.0906513 25.6459157,22.6207999 25.2159481,21.0382511 L20.2840519,2.88579949 C19.851032,1.29201644 18.1574339,0 16.5061111,0 L9.37239361,0 C7.71891441,0 6.03103881,1.30325072 5.60593241,2.89771018 L0.772572262,21.0263405 C0.345892384,22.6267016 0.656655883,25.0887341 1.47594227,26.5418687 L5.10280374,32.9746835 L5.10280374,40.2911392 C5.10280374,41.2405063 5.8317757,42 6.74299065,42 L19.1962617,42 Z" id="path-1"></path>
        <mask id="mask-2" maskContentUnits="userSpaceOnUse" maskUnits="objectBoundingBox" x="-1" y="-1" width="26.8275657" height="44">
            <rect x="-0.418536799" y="-1" width="26.8275657" height="44" fill="white"></rect>
            <use xlink:href="#path-1" fill="black"></use>
        </mask>
        <path d="M13.5430451,33.0606071 C14.2071523,33.0606071 14.7384381,32.3981159 14.7384381,31.5700018 L14.7384381,28.7631616 L17.2066068,23.5853778 C17.9218738,22.0848734 18.2053731,19.5630577 17.8380232,17.944829 L14.4281033,2.92364526 C14.0615579,1.30896057 12.4145321,0 10.7648141,0 L7.20087024,0 C5.54423686,0 3.91047,1.30541653 3.54998645,2.92364526 L0.203803349,17.944829 C-0.155890716,19.5595137 0.125463152,22.0847177 0.832388606,23.5853778 L3.27152006,28.7631616 L3.27152006,31.5700018 C3.27152006,32.3981159 3.80280584,33.0606071 4.46691306,33.0606071 L13.5430451,33.0606071 Z" id="path-3"></path>
    </defs>
    <g id="Page-1" stroke="none" stroke-width="1" fill="none" fill-rule="evenodd">
        <g id="Artboard" transform="translate(-960.000000, -100.000000)">
            <g id="Group-3-Copy" transform="translate(960.000000, 100.000000)" fill="#FFFFFF">
                <circle id="Mask" cx="50" cy="50" r="50"></circle>
            </g>
            <rect id="Rectangle-10" fill="#00B093" x="997" y="120" width="2" height="23"></rect>
            <rect id="Rectangle-10" fill="#00B093" x="1021" y="120" width="2" height="23"></rect>
            <g id="noun_14428" transform="translate(997.000000, 120.000000)">
                <g id="Layer_1">
                    <g id="Group">
                        <g id="Shape" fill-rule="nonzero">
                            <use fill="#00B093" fill-rule="evenodd" xlink:href="#path-1"></use>
                            <use stroke="#FFFFFF" mask="url(#mask-2)" stroke-width="2" xlink:href="#path-1"></use>
                        </g>
                        <g id="Group-8" transform="translate(4.000000, 3.000000)">
                            <mask id="mask-4" fill="white">
                                <use xlink:href="#path-3"></use>
                            </mask>
                            <use id="Shape-Copy" fill="#00B093" fill-rule="nonzero" xlink:href="#path-3"></use>
                            <g id="Group-7" mask="url(#mask-4)" fill="#FFFFFF">
                                <g transform="translate(8.433013, 14.250000) rotate(-30.000000) translate(-8.433013, -14.250000) translate(-9.066987, -5.250000)" id="Rectangle-9">
                                    <rect x="-4.26325641e-14" y="-5.68434189e-14" width="34" height="3"></rect>
                                    <rect x="-5.32907052e-14" y="5" width="34" height="3"></rect>
                                    <rect x="-6.03961325e-14" y="10" width="34" height="3"></rect>
                                    <rect x="-7.10542736e-14" y="15" width="34" height="3"></rect>
                                    <rect x="-4.97379915e-14" y="20" width="34" height="3"></rect>
                                    <rect x="-6.03961325e-14" y="25" width="34" height="3"></rect>
                                    <rect x="0.5" y="30.1339746" width="34" height="3"></rect>
                                    <rect x="0.5" y="35.1339746" width="34" height="3"></rect>
                                </g>
                            </g>
                        </g>
                        <path d="M16.0481444,45.0439883 C15.1009303,44.0967742 15,43.398827 15,43 L11,43 C11,43 11.2622206,45.9912023 12.5584083,47.28739 C13.6551825,48.3841642 16.1977045,49.7800587 15.9484376,52.1231672 C15.6493174,54.4662757 13.3560623,54.7155425 12.1595813,54.2668622 C10.9631004,53.8181818 9.71676607,52.1231672 9.31793909,50.8269795 C8.91911211,49.4809384 7.82233792,48.1348974 6.82527047,48.2844575 C5.82820302,48.4340176 6.07746988,49.3812317 6.22703,50.3284457 C6.37659012,51.2756598 6.62585698,52.4721408 6.72556373,53.9677419 C6.87512384,55.8621701 8.57013851,60 13.5056224,60 C18.4411062,60 21.6317221,56.9589443 21.6317221,52.771261 C21.6317221,48.6334311 16.9455051,45.9912023 16.0481444,45.0439883 Z" id="Shape" fill="#00B193" fill-rule="nonzero"></path>
                    </g>
                </g>
            </g>
            <circle id="Oval-4" stroke="#FFFFFF" fill="#00B093" cx="1010" cy="140" r="5"></circle>
            <g id="Group-10" transform="translate(760.000000, 0.000000)"></g>
        </g>
    </g>
</svg>